<svg width="442" height="124" viewBox="0 0 442 124" fill="none" xmlns="http://www.w3.org/2000/svg">
<rect x="228" y="32" width="214" height="77" fill="#FF006B"/>
<path d="M18.92 28.03V54.32H42.68V62.35H18.92V97H9.35V20H45.43V28.03H18.92ZM89.5108 97L85.3308 77.53H63.8808L59.5908 97H49.8008L68.3908 20H81.0408L99.3008 97H89.5108ZM74.5508 27.26L65.6408 69.28H83.5708L74.5508 27.26ZM130.761 65.1H120.971V97H111.401V20H131.091C137.324 20 142.017 21.3933 145.171 24.18C148.397 26.8933 150.011 31.22 150.011 37.16V47.72C150.011 56.0067 146.711 61.1767 140.111 63.23L155.401 97H144.951L130.761 65.1ZM140.441 36.17C140.441 33.3833 139.781 31.3667 138.461 30.12C137.214 28.8733 135.197 28.25 132.411 28.25H120.971V56.85H132.411C135.197 56.85 137.214 56.2267 138.461 54.98C139.781 53.66 140.441 51.6067 140.441 48.82V36.17ZM210.019 97V27.92L198.249 71.15H189.119L177.349 27.92V97H168.549V20H184.059L194.069 59.38L203.969 20H219.149V97H210.019Z" fill="black"/>
<path d="M249.366 85.72V72.76H236.566V65.24H249.366V52.28H257.206V65.24H270.006V72.76H257.206V85.72H249.366ZM303.376 98.12C299.376 98.12 295.802 97.2667 292.656 95.56C289.509 93.8 287.029 91.24 285.216 87.88C283.402 84.52 282.496 80.4133 282.496 75.56V62.44C282.496 55.1333 284.496 49.56 288.496 45.72C292.496 41.8267 297.909 39.88 304.736 39.88C311.456 39.88 316.629 41.72 320.256 45.4C323.882 49.0267 325.696 53.9067 325.696 60.04V60.44H317.136V59.8C317.136 57.5067 316.682 55.4533 315.776 53.64C314.869 51.7733 313.509 50.3067 311.696 49.24C309.882 48.1733 307.562 47.64 304.736 47.64C300.469 47.64 297.136 48.9467 294.736 51.56C292.336 54.12 291.136 57.6933 291.136 62.28V75.72C291.136 80.2533 292.336 83.8533 294.736 86.52C297.136 89.1333 300.496 90.44 304.816 90.44C309.082 90.44 312.202 89.2667 314.176 86.92C316.149 84.5733 317.136 81.5333 317.136 77.8V76.76H302.096V69.32H325.696V97H317.696V91.32H316.416C315.936 92.3333 315.216 93.3733 314.256 94.44C313.349 95.5067 312.016 96.3867 310.256 97.08C308.549 97.7733 306.256 98.12 303.376 98.12ZM357.866 98.12C350.986 98.12 345.52 96.2 341.466 92.36C337.413 88.4667 335.386 82.8667 335.386 75.56V62.44C335.386 55.1333 337.413 49.56 341.466 45.72C345.52 41.8267 350.986 39.88 357.866 39.88C364.746 39.88 370.213 41.8267 374.266 45.72C378.373 49.56 380.426 55.1333 380.426 62.44V75.56C380.426 82.8667 378.373 88.4667 374.266 92.36C370.213 96.2 364.746 98.12 357.866 98.12ZM357.866 90.36C362.293 90.36 365.706 89.08 368.106 86.52C370.506 83.9067 371.706 80.36 371.706 75.88V62.12C371.706 57.64 370.506 54.12 368.106 51.56C365.706 48.9467 362.293 47.64 357.866 47.64C353.546 47.64 350.16 48.9467 347.706 51.56C345.253 54.12 344.026 57.64 344.026 62.12V75.88C344.026 80.36 345.253 83.9067 347.706 86.52C350.16 89.08 353.546 90.36 357.866 90.36ZM400.923 97L385.323 41H394.283L407.883 91.56H408.923L422.443 41H431.403L415.883 97H400.923Z" fill="white"/>
</svg>
