<svg width="530" height="124" viewBox="0 0 530 124" fill="none" xmlns="http://www.w3.org/2000/svg">
<rect x="316" y="32" width="214" height="77" fill="#FF006B"/>
<path d="M41.58 97V61.58H18.92V97H9.35V20H18.92V53.44H41.58V20H51.15V97H41.58ZM69.8285 97V20H105.909V28.03H79.3985V53.22H103.159V61.25H79.3985V88.97H105.909V97H69.8285ZM154.931 97L150.751 77.53H129.301L125.011 97H115.221L133.811 20H146.461L164.721 97H154.931ZM139.971 27.26L131.061 69.28H148.991L139.971 27.26ZM176.821 97V20H186.391V88.64H210.921V97H176.821ZM236.881 28.36V97H227.311V28.36H210.371V20H253.821V28.36H236.881ZM297.029 97V61.58H274.369V97H264.799V20H274.369V53.44H297.029V20H306.599V97H297.029Z" fill="black"/>
<path d="M336.808 85.72V72.76H324.008V65.24H336.808V52.28H344.648V65.24H357.448V72.76H344.648V85.72H336.808ZM390.817 98.12C386.817 98.12 383.244 97.2667 380.097 95.56C376.95 93.8 374.47 91.24 372.657 87.88C370.844 84.52 369.937 80.4133 369.937 75.56V62.44C369.937 55.1333 371.937 49.56 375.937 45.72C379.937 41.8267 385.35 39.88 392.177 39.88C398.897 39.88 404.07 41.72 407.697 45.4C411.324 49.0267 413.137 53.9067 413.137 60.04V60.44H404.577V59.8C404.577 57.5067 404.124 55.4533 403.217 53.64C402.31 51.7733 400.95 50.3067 399.137 49.24C397.324 48.1733 395.004 47.64 392.177 47.64C387.91 47.64 384.577 48.9467 382.177 51.56C379.777 54.12 378.577 57.6933 378.577 62.28V75.72C378.577 80.2533 379.777 83.8533 382.177 86.52C384.577 89.1333 387.937 90.44 392.257 90.44C396.524 90.44 399.644 89.2667 401.617 86.92C403.59 84.5733 404.577 81.5333 404.577 77.8V76.76H389.537V69.32H413.137V97H405.137V91.32H403.857C403.377 92.3333 402.657 93.3733 401.697 94.44C400.79 95.5067 399.457 96.3867 397.697 97.08C395.99 97.7733 393.697 98.12 390.817 98.12ZM445.308 98.12C438.428 98.12 432.961 96.2 428.908 92.36C424.854 88.4667 422.828 82.8667 422.828 75.56V62.44C422.828 55.1333 424.854 49.56 428.908 45.72C432.961 41.8267 438.428 39.88 445.308 39.88C452.188 39.88 457.654 41.8267 461.708 45.72C465.814 49.56 467.868 55.1333 467.868 62.44V75.56C467.868 82.8667 465.814 88.4667 461.708 92.36C457.654 96.2 452.188 98.12 445.308 98.12ZM445.308 90.36C449.734 90.36 453.148 89.08 455.548 86.52C457.948 83.9067 459.148 80.36 459.148 75.88V62.12C459.148 57.64 457.948 54.12 455.548 51.56C453.148 48.9467 449.734 47.64 445.308 47.64C440.988 47.64 437.601 48.9467 435.148 51.56C432.694 54.12 431.468 57.64 431.468 62.12V75.88C431.468 80.36 432.694 83.9067 435.148 86.52C437.601 89.08 440.988 90.36 445.308 90.36ZM488.364 97L472.764 41H481.724L495.324 91.56H496.364L509.884 41H518.844L503.324 97H488.364Z" fill="white"/>
</svg>
